<svg id="Capa_1" enable-background="new 0 0 512.012 512.012" height="512" viewBox="0 0 512.012 512.012" width="512" xmlns="http://www.w3.org/2000/svg"><g><g><path d="m348.944 222.559c10.359-6.514 63.664-41.494 79.365-111.962 8.692-39.007 2.254-72.697-4.905-94.696-2.037-6.261 5.594-11.14 10.395-6.634 23.36 21.924 58.46 64.09 68.206 127.168 15.841 102.532-48.513 174.854-56.689 183.732z" fill="#655e67"/><path d="m502.005 136.434c-9.745-63.077-44.845-105.243-68.205-127.168-4.801-4.505-12.432.374-10.395 6.634 2.002 6.154 3.948 13.225 5.522 21.069 18.307 23.736 36.489 56.813 43.078 99.464 12.073 78.138-22.428 138.725-43.148 167.063l16.458 16.669c8.177-8.877 72.532-81.199 56.69-183.731z" fill="#544f56"/><path d="m163.063 222.559c-10.359-6.514-63.664-41.494-79.365-111.962-8.692-39.007-2.254-72.697 4.905-94.696 2.037-6.261-5.594-11.14-10.395-6.634-23.36 21.924-58.46 64.09-68.206 127.168-15.841 102.531 48.513 174.854 56.689 183.732z" fill="#655e67"/><path d="m83.698 110.597c-8.691-39.007-2.254-72.697 4.904-94.696 2.037-6.261-5.594-11.14-10.395-6.634-5.896 5.533-12.539 12.36-19.334 20.482-.055.377-.144.762-.271 1.152-7.158 22-13.596 55.689-4.905 94.696 15.702 70.469 69.006 105.448 79.365 111.962l-73.434 74.376c3.317 4.105 5.831 6.894 7.062 8.231l96.372-97.608c-10.358-6.513-63.662-41.492-79.364-111.961z" fill="#544f56"/><path d="m479.072 457.59h-446.137v-46.63c0-123.197 99.871-223.068 223.068-223.068 123.197 0 223.068 99.871 223.068 223.068v46.63z" fill="#f1eff1"/><path d="m256.004 187.892c-5.043 0-10.041.184-15 .514 116.201 7.717 208.068 104.4 208.068 222.555v46.629h30v-46.629c0-123.198-99.871-223.069-223.068-223.069z" fill="#dfdce0"/><path d="m285.325 435.868v-220.709c0-8.284-6.716-15-15-15h-28.644c-8.284 0-15 6.716-15 15v220.709c0 5.523-4.477 10-10 10h-194.177c-8.284 0-15 6.716-15 15v28.644c0 8.284 6.716 15 15 15h467c8.284 0 15-6.716 15-15v-28.644c0-8.284-6.716-15-15-15h-194.179c-5.522 0-10-4.477-10-10z" fill="#ce9775"/><g fill="#c6855b"><path d="m255.325 215.159v220.709c0 5.523 4.477 10 10 10h30c-5.523 0-10-4.477-10-10v-220.709c0-8.284-6.716-15-15-15h-28.644c-.229 0-.452.024-.678.034 7.968.358 14.322 6.911 14.322 14.966z"/><path d="m489.504 445.868h-30c8.284 0 15 6.716 15 15v28.644c0 8.284-6.716 15-15 15h30c8.284 0 15-6.716 15-15v-28.644c0-8.284-6.716-15-15-15z"/></g><g><path d="m205.123 180.122 44.412-119.692c2.226-5.999 10.711-5.999 12.937 0l44.412 119.692z" fill="#655e67"/><path d="m262.472 60.43c-2.226-6-10.711-6-12.937 0l-8.531 22.992 35.88 96.7h30z" fill="#544f56"/><path d="m303.726 210.595h-95.445c-15.877 0-28.748-12.871-28.748-28.748 0-15.877 12.871-28.748 28.748-28.748h95.445c15.877 0 28.748 12.871 28.748 28.748 0 15.877-12.871 28.748-28.748 28.748z" fill="#ce9775"/><path d="m303.726 153.098h-4.748c2.228 4.084 3.496 8.768 3.496 13.748 0 15.877-12.871 28.748-28.748 28.748h-90.697c4.876 8.937 14.356 15 25.253 15h95.445c15.877 0 28.748-12.871 28.748-28.748-.001-15.877-12.872-28.748-28.749-28.748z" fill="#c6855b"/></g></g><path d="m162.361 467.69c-4.142 0-7.5 3.358-7.5 7.5 0 4.143 3.358 7.5 7.5 7.5s7.5-3.357 7.5-7.5c0-4.142-3.358-7.5-7.5-7.5zm-62.429 0c-4.142 0-7.5 3.358-7.5 7.5 0 4.143 3.358 7.5 7.5 7.5s7.5-3.357 7.5-7.5c0-4.142-3.358-7.5-7.5-7.5zm-62.428 0c-4.142 0-7.5 3.358-7.5 7.5 0 4.143 3.358 7.5 7.5 7.5s7.5-3.357 7.5-7.5c0-4.142-3.358-7.5-7.5-7.5zm187.285 0c-4.142 0-7.5 3.358-7.5 7.5 0 4.143 3.358 7.5 7.5 7.5s7.5-3.357 7.5-7.5c0-4.142-3.358-7.5-7.5-7.5zm30.268-171.921c-4.142 0-7.5 3.358-7.5 7.5s3.358 7.5 7.5 7.5 7.5-3.358 7.5-7.5-3.358-7.5-7.5-7.5zm94.589 171.921c-4.142 0-7.5 3.358-7.5 7.5 0 4.143 3.358 7.5 7.5 7.5s7.5-3.357 7.5-7.5c0-4.142-3.357-7.5-7.5-7.5zm124.858 0c-4.142 0-7.5 3.358-7.5 7.5 0 4.143 3.358 7.5 7.5 7.5s7.5-3.357 7.5-7.5c0-4.142-3.358-7.5-7.5-7.5zm-62.429 0c-4.142 0-7.5 3.358-7.5 7.5 0 4.143 3.358 7.5 7.5 7.5s7.5-3.357 7.5-7.5c0-4.142-3.358-7.5-7.5-7.5zm-157.018-47.063c-4.142 0-7.5 3.358-7.5 7.5s3.358 7.5 7.5 7.5 7.5-3.358 7.5-7.5-3.358-7.5-7.5-7.5zm231.517 17.745v-27.41c0-35.583-8.021-69.927-23.178-100.99 10.476-14.007 24-35.298 34.168-62.577 13.684-36.716 17.672-74.435 11.853-112.107-9.753-63.152-43.71-106.363-70.482-131.497-4.688-4.396-11.483-5.029-16.907-1.58-5.437 3.457-7.748 9.893-5.754 16.013 6.753 20.752 13.054 53.341 4.721 90.746-10.965 49.165-41.327 80.577-60.786 96.292-7.414-3.77-15.029-7.122-22.793-10.059 1.646-4.136 2.56-8.64 2.56-13.355 0-20.705-17.342-37.065-37.906-36.249l-32.566-87.779c-2.119-5.703-7.418-9.388-13.5-9.388s-11.381 3.685-13.501 9.392l-32.564 87.774c-20.583-.807-37.906 15.593-37.906 36.249 0 4.705.911 9.199 2.55 13.328-7.824 2.947-15.439 6.307-22.832 10.046-19.46-15.729-49.781-47.129-60.736-96.25-8.333-37.407-2.032-69.996 4.72-90.745 1.995-6.123-.316-12.559-5.753-16.016-5.425-3.449-12.22-2.813-16.91 1.584-26.771 25.129-60.728 68.341-70.48 131.493-.632 4.094 2.174 7.925 6.268 8.557 4.1.633 7.925-2.175 8.557-6.268 8.721-56.469 38.257-95.924 62.746-119.809-6.784 22.606-12.315 56.189-3.788 94.467 11.078 49.672 40.257 82.629 61.278 100.749-26.284 15.706-49.255 36.591-67.747 61.826-4.859 6.63-9.326 13.471-13.411 20.489-17.631-25.114-40.798-68.552-41.472-124.059-.05-4.111-3.397-7.409-7.497-7.409-.031 0-.062 0-.093.001-4.142.05-7.459 3.448-7.408 7.59.778 64.163 29.538 113.102 48.603 138.574-15.256 31.217-23.193 65.501-23.193 100.967v27.41c-13.438-1.314-25.429 8.886-25.43 22.5v28.64c0 12.406 10.094 22.5 22.5 22.5h467c12.406 0 22.5-10.094 22.5-22.5v-28.64c.008-13.896-12.029-23.631-25.431-22.5zm-50.941-326.139c8.527-38.275 2.997-71.855-3.788-94.465 24.491 23.889 54.025 63.343 62.746 119.809 11.158 72.242-19.435 129.53-39.063 157.668-9.939-17.072-22.142-32.977-36.481-47.317-13.422-13.421-28.524-25.136-44.776-34.871 21.028-18.105 50.27-51.085 61.362-100.824zm-179.629-47.677 30.067 81.042h-60.133zm-47.723 96.042h95.445c11.716 0 21.248 9.532 21.248 21.249 0 11.716-9.532 21.248-21.248 21.248h-95.445c-11.716 0-21.248-9.532-21.248-21.248 0-11.717 9.532-21.249 21.248-21.249zm-167.848 250.364c-.113-47.058 14.13-89.841 41.571-127.286 26.555-36.237 59.661-60.721 101.207-75.686 6.516 6.251 15.349 10.105 25.07 10.105h10.902v217.777c0 1.379-1.121 2.5-2.5 2.5h-176.25zm456.571 78.55c0 4.136-3.364 7.5-7.5 7.5h-467c-4.136 0-7.5-3.364-7.5-7.5v-28.64c0-4.136 3.364-7.5 7.5-7.5h194.18c9.649 0 17.5-7.851 17.5-17.5v-217.777h43.641v89.688c0 4.143 3.357 7.5 7.5 7.5s7.5-3.357 7.5-7.5v-89.688h10.902c9.716 0 18.544-3.85 25.06-10.095 29.733 10.679 57.192 28.072 79.654 50.536 40.273 40.275 63.245 94.091 63.134 152.427v27.41h-176.25c-1.379 0-2.5-1.121-2.5-2.5v-93.089c0-4.143-3.357-7.5-7.5-7.5s-7.5 3.357-7.5 7.5v93.089c0 9.649 7.851 17.5 17.5 17.5h194.18c4.136 0 7.5 3.364 7.5 7.5v28.639zm-209.786-21.822c-4.142 0-7.5 3.358-7.5 7.5 0 4.143 3.358 7.5 7.5 7.5s7.5-3.357 7.5-7.5c0-4.142-3.358-7.5-7.5-7.5zm-32.161-109.492c-4.142 0-7.5 3.358-7.5 7.5s3.358 7.5 7.5 7.5 7.5-3.358 7.5-7.5-3.358-7.5-7.5-7.5zm0-124.857c-4.142 0-7.5 3.357-7.5 7.5 0 4.142 3.358 7.5 7.5 7.5s7.5-3.358 7.5-7.5c0-4.143-3.358-7.5-7.5-7.5z"/></g></svg>